#!OML:ASF G:\acrobat\cartwheel_test\acrobat_wednesday\Session 1\acrobatwednesday.ASF
:FULLY-SPECIFIED
:DEGREES
77
root 10.1735 14.5781 3.31807 -189.886 89.3386 -186.068
lowerback 0.0640912 -0.465591 0.172623
upperback 1.95024 -0.61406 0.308653
thorax 1.96297 -0.300746 0.209547
lowerneck -19.2605 -12.8323 -14.8318
upperneck 23.0951 -16.8259 11.9939
head 13.3334 -7.29554 3.89955
rclavicle -1.9498e-015 -4.07509e-015
rhumerus 0 0 0
rradius 0
rwrist 0
rhand 0 0
rfingers 0
rthumb 0 0
lclavicle -1.9498e-015 -4.07509e-015
lhumerus 0 0 0
lradius 0
lwrist 0
lhand 0 0
lfingers 0
lthumb 0 0
rfemur -17.4567 -10.0618 11.2244
rtibia 56.0004
rfoot 10.7107 13.8384
rtoes -19.3324
lfemur -20.2241 6.98894 -10.0356
ltibia 58.8537
lfoot 22.74 5.46146
ltoes -16.7742
78
root 10.1699 14.5774 3.31938 -191.423 89.3142 -187.603
lowerback 0.0687794 -0.469686 0.167771
upperback 1.95692 -0.619381 0.309239
thorax 1.96726 -0.303446 0.212786
lowerneck -19.2556 -12.8195 -14.8347
upperneck 23.1222 -16.8142 12.0101
head 13.3439 -7.28806 3.90976
rclavicle -3.81379e-015 3.97569e-015
rhumerus 0 0 0
rradius 0
rwrist 0
rhand 0 0
rfingers 0
rthumb 0 0
lclavicle -3.81379e-015 3.97569e-015
lhumerus 0 0 0
lradius 0
lwrist 0
lhand 0 0
lfingers 0
lthumb 0 0
rfemur -17.4831 -10.1596 11.2011
rtibia 56.0636
rfoot 10.8757 13.7431
rtoes -19.2942
lfemur -20.2448 7.07102 -10.0324
ltibia 58.8488
lfoot 22.6039 5.47872
ltoes -16.4615
79
root 10.1656 14.5768 3.32059 -193.159 89.2846 -189.356
lowerback 0.08704 -0.465045 0.195659
upperback 1.95411 -0.613068 0.288947
thorax 1.95358 -0.299645 0.176656
lowerneck -19.3514 -12.8306 -14.8083
upperneck 23.2608 -16.8331 11.983
head 13.4173 -7.28901 3.88887
rclavicle -1.96766e-015 3.57812e-015
rhumerus 0 0 0
rradius 0
rwrist 0
rhand 0 0
rfingers 0
rthumb 0 0
lclavicle -1.96766e-015 3.57812e-015
lhumerus 0 0 0
lradius 0
lwrist 0
lhand 0 0
lfingers 0
lthumb 0 0
rfemur -17.5807 -10.2754 11.1758
rtibia 56.2425
rfoot 11.1924 13.5206
rtoes -20.5689
lfemur -20.2783 7.14206 -10.0373
ltibia 58.8146
lfoot 22.6035 5.28414
ltoes -15.4064
80
root 10.1617 14.5772 3.3199 -196.432 89.2559 -192.658
lowerback 0.0975356 -0.477619 0.217283
upperback 1.95143 -0.629672 0.265748
thorax 1.94446 -0.30739 0.140619
lowerneck -19.5023 -12.8386 -14.7436
upperneck 23.3942 -16.8428 11.925
head 13.4904 -7.28436 3.84948
rclavicle -8.66577e-016 -1.39149e-015
rhumerus 0 0 0
rradius 0
rwrist 0
rhand 0 0
rfingers 0
rthumb 0 0
lclavicle -8.66577e-016 -1.39149e-015
lhumerus 0 0 0
lradius 0
lwrist 0
lhand 0 0
lfingers 0
lthumb 0 0
rfemur -17.6776 -10.4076 11.1049
rtibia 56.365
rfoot 11.3767 13.2374
rtoes -21.7597
lfemur -20.3158 7.1928 -10.0898
ltibia 58.8099
lfoot 22.6113 5.43502
ltoes -16.1339
81
root 10.1583 14.5775 3.31979 -198.339 89.2068 -194.583
lowerback 0.113355 -0.517399 0.200285
upperback 1.95266 -0.682606 0.276598
thorax 1.93723 -0.334195 0.160554
lowerneck -19.7368 -12.8169 -14.659
upperneck 23.5719 -16.7873 11.7948
head 13.5778 -7.25441 3.7905
rclavicle -1.16631e-015 4.57205e-015
rhumerus 0 0 0
rradius 0
rwrist 0
rhand 0 0
rfingers 0
rthumb 0 0
lclavicle -1.16631e-015 4.57205e-015
lhumerus 0 0 0
lradius 0
lwrist 0
lhand 0 0
lfingers 0
lthumb 0 0
rfemur -17.7552 -10.5744 11.0381
rtibia 56.4666
rfoot 11.4312 13.1654
rtoes -21.4902
lfemur -20.3647 7.24369 -10.1264
ltibia 58.8437
lfoot 22.5408 5.78441
ltoes -17.6109
82
root 10.1551 14.5776 3.32139 -199.022 89.1748 -195.25
lowerback 0.160561 -0.54441 0.17213
upperback 1.95705 -0.718427 0.307323
thorax 1.91603 -0.352748 0.207689
lowerneck -19.943 -12.7862 -14.6529
upperneck 23.7445 -16.7202 11.7438
head 13.6739 -7.21788 3.77852
rclavicle -5.0395e-015 -7.95139e-016
rhumerus 0 0 0
rradius 0
rwrist 0
rhand 0 0
rfingers 0
rthumb 0 0
lclavicle -5.0395e-015 -7.95139e-016
lhumerus 0 0 0
lradius 0
lwrist 0
lhand 0 0
lfingers 0
lthumb 0 0
rfemur -17.7832 -10.6897 11.0027
rtibia 56.5255
rfoot 11.438 13.2365
rtoes -20.2007
lfemur -20.3813 7.33047 -10.1177
ltibia 58.8602
lfoot 22.4991 5.76715
ltoes -17.2756
83
root 10.151 14.5782 3.32312 -202.449 89.1919 -198.642
lowerback 0.218782 -0.554113 0.114389
upperback 1.94168 -0.73107 0.338911
thorax 1.86873 -0.360318 0.272885
lowerneck -20.0053 -12.7374 -14.7247
upperneck 23.882 -16.6369 11.763
head 13.7407 -7.1797 3.816
rclavicle -3.93221e-015 4.37326e-015
rhumerus 0 0 0
rradius 0
rwrist 0
rhand 0 0
rfingers 0
rthumb 0 0
lclavicle -3.93221e-015 4.37326e-015
lhumerus 0 0 0
lradius 0
lwrist 0
lhand 0 0
lfingers 0
lthumb 0 0
rfemur -17.7383 -10.6832 10.9579
rtibia 56.47
rfoot 11.3896 13.2589
rtoes -19.5938
lfemur -20.3538 7.43553 -10.1337
ltibia 58.8623
lfoot 22.4553 5.68268
ltoes -16.511
